<?xml version="1.0" standalone="no"?><!DOCTYPE svg PUBLIC "-//W3C//DTD SVG 1.1//EN" "http://www.w3.org/Graphics/SVG/1.1/DTD/svg11.dtd"><svg t="1715394436999" class="icon" viewBox="0 0 1024 1024" version="1.1" xmlns="http://www.w3.org/2000/svg" p-id="2177" xmlns:xlink="http://www.w3.org/1999/xlink" width="200" height="200"><path d="M237.5 254.6c71.3-32.1 149.6-13.2 170 27.6-18.7-2.9-38.7-0.5-57.5 8-34.5 15.5-52 56.6-54 92.2 62.3-3.4 111.6 17.3 111.6 37.4 0 19.4-53.4 30.6-119.3 36.3-65.9 5.1-110.6-13.1-128.6-36.3-5.6-5-10.1-10.9-13.1-17.6-27.6-61 18.6-114.9 90.9-147.6z" fill="#FFFFFF" p-id="2178"></path><path d="M237.5 254.6c71.3-32.1 149.6-13.2 170 27.6-18.7-2.9-38.7-0.5-57.5 8-34.5 15.5-52 56.6-54 92.2 62.3-3.4 111.6 17.3 111.6 37.4 0 19.4-53.4 30.6-119.3 36.3-65.9 5.1-110.6-13.1-128.6-36.3-5.6-5-10.1-10.9-13.1-17.6-27.6-61 18.6-114.9 90.9-147.6z" fill="#FF8A65" p-id="2179"></path><path d="M266.1 477c7.7 0 15.6-0.3 23.7-0.9h0.2c37.1-3.2 66.7-7.8 87.9-13.6 12.3-3.4 49.7-13.6 49.7-42.6 0-7.2-2.4-17.9-13.9-28.4-23.4-21.5-74.4-32.8-126.9-28.3-11.2 0.7-22.9 1.9-34.8 3.6-9.5 1.3-18.8 2.9-27.8 4.8-10.8 2.2-17.8 12.8-15.6 23.6 2.2 10.8 12.8 17.8 23.6 15.6 8.2-1.7 16.8-3.1 25.4-4.4 10.9-1.5 21.6-2.6 31.9-3.3h0.5c24.5-2.1 49.1-0.2 69.3 5.3 12.1 3.3 19.7 7.1 24.1 10-9.8 4.6-35 12.6-96.7 17.9-61.9 4.8-98.6-12.4-111.2-28.6-6.8-8.7-19.4-10.3-28.1-3.5-8.7 6.8-10.3 19.4-3.5 28.1 12.1 15.5 31.5 27.8 56.1 35.5 19.7 6.1 41.9 9.2 66.1 9.2z" fill="#3E2723" p-id="2180"></path><path d="M138 306.5c18.6-27.3 50.2-51.6 91.2-70.1 37.1-16.7 78.3-22.1 116-15 38 7.1 67.2 26 80.2 51.9 3.3 6.7 2.7 14.7-1.7 20.7s-11.8 9.1-19.2 8c-15.6-2.4-31.6-0.2-46.3 6.5-26.7 12.1-41.1 46.9-42.4 76.9l-40.1 2.9c0.2-22 5.5-44.8 15.1-64.4 11.9-24.3 29.5-42.2 50.9-51.8 5.2-2.3 10.5-4.3 15.8-5.9-29.1-11-71.9-11.3-111.9 6.7-34.4 15.5-60.2 34.9-74.6 56.2-14.4 21.2-16.5 42.5-6.4 65 1.5 3.3 4.1 7.1 6.7 9.8-8.1 8.3-13.9 21 17.1 32.7 19.9 7.5 52.4 13.1 84 17.1-4 1.5-8.1 2.7-12.5 3.4-12 2.1-23.6 3.1-34.8 3.1-15.7 0-30.4-2-43.6-6.1-25.7-7.9-44.1-23-53.4-43.6-15.7-35.3-12.4-71.2 9.9-104z" fill="#3E2723" p-id="2181"></path><path d="M785.2 254.6c-71.3-32.1-149.6-13.2-170 27.6 18.7-2.9 38.7-0.5 57.5 8 34.5 15.5 52 56.6 54 92.2-62.3-3.4-111.6 17.3-111.6 37.4 0 19.4 53.4 30.6 119.3 36.3C800.3 461.2 845 443 863 419.8c5.6-5 10.1-10.9 13.1-17.6 27.6-61-18.6-114.9-90.9-147.6z" fill="#FFFFFF" p-id="2182"></path><path d="M785.2 254.6c-71.3-32.1-149.6-13.2-170 27.6 18.7-2.9 38.7-0.5 57.5 8 34.5 15.5 52 56.6 54 92.2-62.3-3.4-111.6 17.3-111.6 37.4 0 19.4 53.4 30.6 119.3 36.3C800.3 461.2 845 443 863 419.8c5.6-5 10.1-10.9 13.1-17.6 27.6-61-18.6-114.9-90.9-147.6z" fill="#FF8A65" p-id="2183"></path><path d="M359.6 494.1c0 21.1-42.7 42.6-95.4 36.6s-95.4-17.2-95.4-36.6c0-21.1 42.7-42.6 95.4-36.6 52.7 6.1 95.4 17.3 95.4 36.6z" fill="#FFFFFF" p-id="2184"></path><path d="M281.9 551.6c-6.6 0-13.3-0.4-20-1.1-30.2-3.5-54.3-8.3-71.7-14.3-27.5-9.5-41.4-23.7-41.4-42.2 0-8.1 2.8-20.3 16.1-32.2 21.7-19.3 61.5-28.8 101.5-24.2 30.2 3.5 54.3 8.3 71.7 14.3 27.5 9.5 41.4 23.7 41.4 42.2 0 8.1-2.8 20.3-16.1 32.2-17.9 16.1-48.6 25.3-81.5 25.3z m-91.3-58.9c6 3.9 24.2 12.1 75.9 18 19 2.2 37.8 0.4 53.2-5 10.2-3.6 15.7-7.7 18.2-10.3-6-3.9-24.2-12.1-75.9-18-19-2.2-37.8-0.4-53.2 5-10.2 3.6-15.7 7.7-18.2 10.3z m169 1.4z" fill="#3E2723" p-id="2185"></path><path d="M290.7 625.8c-6.6 0-13.3-0.4-20-1.1-30.2-3.5-54.3-8.3-71.7-14.3-27.5-9.5-41.4-23.7-41.4-42.2 0-8.1 2.8-20.3 16.1-32.2 21.7-19.3 61.5-28.8 101.5-24.2 30.2 3.5 54.3 8.3 71.7 14.3 27.5 9.5 41.4 23.7 41.4 42.2 0 8.1-2.8 20.3-16.1 32.2-18 16.1-48.7 25.3-81.5 25.3z m-91.4-58.9c6 3.9 24.2 12.1 75.9 18 19 2.2 37.8 0.4 53.2-5 10.2-3.6 15.7-7.7 18.2-10.3-6-3.9-24.2-12.1-75.9-18-19-2.2-37.8-0.4-53.2 5-10.1 3.6-15.6 7.7-18.2 10.3z m150 4.9z m-151.8-2.5z m151-2zM756.6 477c-7.7 0-15.6-0.3-23.7-0.9h-0.2c-37.1-3.2-66.7-7.8-87.9-13.6-12.3-3.4-49.7-13.6-49.7-42.6 0-7.2 2.4-17.9 13.9-28.4 23.4-21.5 74.4-32.8 126.9-28.3 11.2 0.7 22.9 1.9 34.8 3.6 9.5 1.3 18.8 2.9 27.8 4.8 10.8 2.2 17.8 12.8 15.6 23.6-2.2 10.8-12.8 17.8-23.6 15.6-8.2-1.7-16.8-3.1-25.4-4.4-10.9-1.5-21.6-2.6-31.9-3.3h-0.5c-24.5-2.1-49.1-0.2-69.3 5.3-12.1 3.3-19.7 7.1-24.1 10 9.8 4.6 35 12.6 96.7 17.9 61.9 4.8 98.6-12.4 111.2-28.6 6.8-8.7 19.4-10.3 28.1-3.5 8.7 6.8 10.3 19.4 3.5 28.1-12.1 15.5-31.5 27.8-56.1 35.5-19.7 6.1-41.9 9.2-66.1 9.2z" fill="#3E2723" p-id="2186"></path><path d="M776.1 551.6c-6.6 0-13.3-0.4-20-1.1-30.2-3.5-54.3-8.3-71.7-14.3-27.5-9.5-41.4-23.7-41.4-42.2 0-8.1 2.8-20.3 16.1-32.2 21.7-19.3 61.5-28.8 101.5-24.2 30.2 3.5 54.3 8.3 71.7 14.3 27.5 9.5 41.4 23.7 41.4 42.2 0 8.1-2.8 20.3-16.1 32.2-18 16.1-48.6 25.3-81.5 25.3z m-91.4-58.9c6 3.9 24.2 12.1 75.9 18 19 2.2 37.8 0.4 53.2-5 10.2-3.6 15.7-7.7 18.2-10.3-6-3.9-24.2-12.1-75.9-18-19-2.2-37.8-0.4-53.2 5-10.1 3.6-15.6 7.7-18.2 10.3z" fill="#3E2723" p-id="2187"></path><path d="M767.4 625.8c-6.6 0-13.3-0.4-20-1.1-30.2-3.5-54.3-8.3-71.7-14.3-27.5-9.5-41.4-23.7-41.4-42.2 0-8.1 2.8-20.3 16.1-32.2 21.7-19.3 61.5-28.8 101.5-24.2 30.2 3.5 54.3 8.3 71.7 14.3 27.5 9.5 41.4 23.7 41.4 42.2 0 8.1-2.8 20.3-16.1 32.2-18 16.1-48.7 25.3-81.5 25.3zM676 566.9c6 3.9 24.2 12.1 75.9 18 19 2.2 37.8 0.4 53.2-5 10.2-3.6 15.7-7.7 18.2-10.3-6-3.9-24.2-12.1-75.9-18-19-2.2-37.8-0.4-53.2 5-10.1 3.6-15.6 7.7-18.2 10.3z m-1.8 2.4z" fill="#3E2723" p-id="2188"></path><path d="M348.2 617.3c6.9 6.6-13.3 43.3-45.1 61.5-15.9 9.5-31.7 15.3-44.4 20-12.7 4.4-22.3 7.7-25.7 4.1-6.9-6.6 13.3-43.3 45.1-61.5 15.9-9.5 31.7-15.3 44.4-20 12.7-4.3 22.2-7.6 25.7-4.1z" fill="#FFFFFF" p-id="2189"></path><path d="M237.5 724.4c-7.6 0-13.9-2.4-18.7-7.3-3.4-3.3-8.4-10.5-7-22.4 2.4-19.9 24.6-52.5 56.1-70.5 17-10.2 33.3-16.2 46.5-21.1l1.1-0.4c0.2-0.1 0.3-0.1 0.5-0.2l0.2-0.1c7-2.4 13-4.5 18.6-5.6 11.7-2.4 20.9-0.3 27.5 6.3 3.4 3.3 8.4 10.5 7 22.4-2.4 19.9-24.6 52.5-56.1 70.5-17 10.2-33.4 16.2-46.5 21.1l-1.1 0.4c-0.2 0.1-0.3 0.1-0.5 0.2l-0.2 0.1c-7 2.4-13 4.5-18.6 5.6-3 0.7-6 1-8.8 1z m74.2-77.4c-7.6 3.2-15.5 6.9-23.4 11.6-0.1 0.1-0.2 0.1-0.4 0.2-7 4-13.3 9.2-18.5 14.5 7.6-3.2 15.5-6.9 23.4-11.6 0.1-0.1 0.2-0.1 0.4-0.2 7-4.1 13.3-9.2 18.5-14.5zM792.6 723.4c-5.6-1.2-11.6-3.2-18.6-5.6l-0.2-0.1c-0.2-0.1-0.3-0.1-0.5-0.2l-1.1-0.4c-13.2-4.9-29.5-10.9-46.5-21.1-31.5-18.1-53.7-50.7-56.1-70.5-1.5-11.9 3.6-19 7-22.4 6.6-6.6 15.9-8.8 27.5-6.3 5.6 1.2 11.6 3.2 18.6 5.6l0.2 0.1c0.2 0.1 0.3 0.1 0.5 0.2l1.1 0.4C737.6 608 754 614 771 624.2c31.5 18.1 53.7 50.7 56.1 70.5 1.5 11.9-3.6 19-7 22.4-4.8 4.9-11.1 7.3-18.7 7.3-2.7 0-5.7-0.3-8.8-1z m-46.8-62c0.1 0.1 0.2 0.1 0.4 0.2 7.9 4.7 15.8 8.5 23.4 11.6-5.3-5.3-11.5-10.4-18.5-14.5-0.1-0.1-0.2-0.1-0.4-0.2-7.9-4.7-15.8-8.5-23.4-11.6 5.2 5.4 11.5 10.5 18.5 14.5z" fill="#3E2723" p-id="2190"></path><path d="M746.2 507.1c11.3 24.2 15 47.1 10.2 70.7-4.7 23.4-17.9 47.5-39 70.5-41.7 45.3-116.9 87.5-206 87.1-89.1 0.5-164.4-41.8-206.1-87.1-21.1-22.9-34.2-47-39-70.4-4.8-23.6-1.1-46.5 10.2-70.7 11.1-23.8 27.2-46.5 44.3-67.5 17.3-21 35.6-40.5 54.9-57 19.4-16.6 39.9-30.3 62.5-39.7 22.6-9.4 47.3-14.6 73-14.7 25.8 0.1 50.5 5.2 73 14.7 22.6 9.4 43.1 23.1 62.5 39.7s37.6 36 54.9 57c17.3 20.9 33.5 43.6 44.6 67.4z" fill="#FFFFFF" p-id="2191"></path><path d="M746.2 507.1c11.3 24.2 15 47.1 10.2 70.7-4.7 23.4-17.9 47.5-39 70.5-41.7 45.3-116.9 87.5-206 87.1-89.1 0.5-164.4-41.8-206.1-87.1-21.1-22.9-34.2-47-39-70.4-4.8-23.6-1.1-46.5 10.2-70.7 11.1-23.8 27.2-46.5 44.3-67.5 17.3-21 35.6-40.5 54.9-57 19.4-16.6 39.9-30.3 62.5-39.7 22.6-9.4 47.3-14.6 73-14.7 25.8 0.1 50.5 5.2 73 14.7 22.6 9.4 43.1 23.1 62.5 39.7s37.6 36 54.9 57c17.3 20.9 33.5 43.6 44.6 67.4z" fill="#FF8A65" p-id="2192"></path><path d="M512.8 755.3h-2.9c-98.2 0-177.6-48.2-219.3-93.6-23.2-25.2-38.4-52.9-43.8-80-5.5-27.3-1.7-54.5 11.7-83.1 10.3-22.2 25.2-45 47-71.7 0 0 0-0.1 0.1-0.1 19.5-23.7 38.3-43.2 57.4-59.5 22.6-19.3 44.8-33.4 67.8-43 25.5-10.7 52.7-16.2 80.7-16.2 28.1 0.1 55.3 5.5 80.8 16.2 23 9.6 45.2 23.6 67.8 42.9 19.1 16.4 37.9 35.9 57.4 59.5 0 0 0 0.1 0.1 0.1 21.7 26.7 36.6 49.5 47 71.7 13.4 28.6 17.2 55.8 11.7 83.1-5.5 27.5-20.3 54.4-43.9 80-42 45.5-121.5 93.7-219.6 93.7z m-1.5-40h1.5c85.2 0 153.9-41.6 189.9-80.6 18.3-19.9 30.1-40.9 34.1-60.9 3.8-18.9 1-37.4-8.7-58.3-8.9-19.1-22.2-39.3-41.7-63.3-18-21.8-35.1-39.7-52.5-54.5-19.4-16.6-38.1-28.5-57.2-36.4-20.7-8.7-42.7-13.1-65.4-13.1-22.6 0.1-44.6 4.5-65.3 13.1-19.1 8-37.9 19.9-57.3 36.5-17.3 14.8-34.5 32.6-52.4 54.5-19.5 24-32.8 44.2-41.7 63.3-9.8 20.9-12.5 39.5-8.7 58.3 4 20 15.8 41 34.1 60.8 36 39.1 104.7 80.7 189.9 80.7h1.4v-0.1z" fill="#3E2723" p-id="2193"></path><path d="M450.5 339.3m-33 0a33 33 0 1 0 66 0 33 33 0 1 0-66 0Z" fill="#3E2723" p-id="2194"></path><path d="M572.2 339.3m-33 0a33 33 0 1 0 66 0 33 33 0 1 0-66 0Z" fill="#3E2723" p-id="2195"></path><path d="M884.6 306.5c-18.6-27.3-50.2-51.6-91.2-70.1-37.1-16.7-78.3-22.1-116-15-38 7.1-67.2 26-80.2 51.9-3.3 6.7-2.7 14.7 1.7 20.7s11.8 9.1 19.2 8c15.6-2.4 31.6-0.2 46.3 6.5 26.7 12.1 41.1 46.9 42.4 76.9l40.1 2.9c-0.2-22-5.5-44.8-15.1-64.4-11.9-24.3-29.5-42.2-50.9-51.8-5.2-2.3-10.5-4.3-15.8-5.9 29.1-11 71.9-11.3 111.9 6.7 34.4 15.5 60.2 34.9 74.6 56.2 14.4 21.2 16.5 42.5 6.4 65-1.5 3.3-4.1 7.1-6.7 9.8 8.1 8.3 13.9 21-17.1 32.7-19.9 7.5-52.4 13.1-84 17.1 4 1.5 8.1 2.7 12.5 3.4 12 2.1 23.6 3.1 34.8 3.1 15.7 0 30.4-2 43.6-6.1 25.7-7.9 44.1-23 53.4-43.6 15.8-35.3 12.4-71.2-9.9-104z" fill="#3E2723" p-id="2196"></path></svg>